<?xml version="1.0" encoding="UTF-8" standalone="no"?>
<!-- Created with Inkscape (http://www.inkscape.org/) -->

<svg
   width="148mm"
   height="105mm"
   viewBox="0 0 148 105"
   version="1.1"
   id="svg1"
   inkscape:version="1.3.2 (091e20ef0f, 2023-11-25)"
   sodipodi:docname="background.svg"
   xmlns:inkscape="http://www.inkscape.org/namespaces/inkscape"
   xmlns:sodipodi="http://sodipodi.sourceforge.net/DTD/sodipodi-0.dtd"
   xmlns="http://www.w3.org/2000/svg"
   xmlns:svg="http://www.w3.org/2000/svg">
  <sodipodi:namedview
     id="namedview1"
     pagecolor="#ffffff"
     bordercolor="#000000"
     borderopacity="0.25"
     inkscape:showpageshadow="2"
     inkscape:pageopacity="0.0"
     inkscape:pagecheckerboard="0"
     inkscape:deskcolor="#d1d1d1"
     inkscape:document-units="mm"
     inkscape:zoom="1.7739373"
     inkscape:cx="315.40009"
     inkscape:cy="195.89193"
     inkscape:window-width="1920"
     inkscape:window-height="1011"
     inkscape:window-x="0"
     inkscape:window-y="0"
     inkscape:window-maximized="1"
     inkscape:current-layer="layer1" />
  <defs
     id="defs1">
    <clipPath
       clipPathUnits="userSpaceOnUse"
       id="clipPath11301">
      <path
         d="M 0,0 H 436.535 V 612.28302 H 0 Z"
         transform="translate(-333.3359,-164.7988)"
         id="path11301" />
    </clipPath>
    <clipPath
       clipPathUnits="userSpaceOnUse"
       id="clipPath5551">
      <path
         d="M 0,0 H 436.535 V 612.28302 H 0 Z"
         transform="translate(-66.668502,-469.64622)"
         id="path5551" />
    </clipPath>
    <clipPath
       clipPathUnits="userSpaceOnUse"
       id="clipPath5553">
      <path
         d="M 0,0 H 436.535 V 612.28302 H 0 Z"
         transform="translate(-87.733677,-468.34001)"
         id="path5553" />
    </clipPath>
    <clipPath
       clipPathUnits="userSpaceOnUse"
       id="clipPath5555">
      <path
         d="M 0,0 H 436.535 V 612.28302 H 0 Z"
         transform="translate(-66.032502,-475.71851)"
         id="path5555" />
    </clipPath>
    <clipPath
       clipPathUnits="userSpaceOnUse"
       id="clipPath5557">
      <path
         d="M 0,0 H 436.535 V 612.28302 H 0 Z"
         transform="translate(-70.151577,-455.96672)"
         id="path5557" />
    </clipPath>
    <clipPath
       clipPathUnits="userSpaceOnUse"
       id="clipPath5559">
      <path
         d="M 0,0 H 436.535 V 612.28302 H 0 Z"
         transform="translate(-80.122677,-454.1334)"
         id="path5559" />
    </clipPath>
    <clipPath
       clipPathUnits="userSpaceOnUse"
       id="clipPath5561">
      <path
         d="M 0,0 H 436.535 V 612.28302 H 0 Z"
         transform="translate(-81.965877,-478.78022)"
         id="path5561" />
    </clipPath>
    <clipPath
       clipPathUnits="userSpaceOnUse"
       id="clipPath5563">
      <path
         d="M 0,0 H 436.535 V 612.28302 H 0 Z"
         transform="translate(-97.479927,-477.31031)"
         id="path5563" />
    </clipPath>
    <clipPath
       clipPathUnits="userSpaceOnUse"
       id="clipPath11870-7">
      <path
         d="M 0,0 H 436.535 V 612.284 H 0 Z"
         transform="translate(-227.55349,-452.92512)"
         id="path11870-0" />
    </clipPath>
    <clipPath
       clipPathUnits="userSpaceOnUse"
       id="clipPath12426">
      <path
         d="M 0,0 H 436.535 V 612.284 H 0 Z"
         transform="translate(-218.26729,-143.38021)"
         id="path12426" />
    </clipPath>
    <clipPath
       clipPathUnits="userSpaceOnUse"
       id="clipPath1263">
      <path
         d="M 0,0 H 436.535 V 612.284 H 0 Z"
         transform="translate(-230.85891,-145.09211)"
         id="path1263" />
    </clipPath>
    <clipPath
       clipPathUnits="userSpaceOnUse"
       id="clipPath707">
      <path
         d="M 0,0 H 436.535 V 612.284 H 0 Z"
         transform="translate(-225.7309,-462.00962)"
         id="path707" />
    </clipPath>
  </defs>
  <g
     inkscape:label="Layer 1"
     inkscape:groupmode="layer"
     id="layer1">
    <path
       id="path11300"
       d="m 0,0 29.101999,-5.82 0.969,4.838 L -6.2909999,6.2909999 -13.601,13.601 l 29.102,-5.82 0.968999,4.838 -36.361999,7.273 -2.671999,2.671999 5.674,5.674001 -3.489001,3.488999 -5.673999,-5.674 -3.930001,3.930001 5.674,5.674001 -3.49,3.489998 -5.674,-5.673999 -3.955001,3.955001 C -20.374,55.279999 -9.993,78.425003 -8.036,103.027 l 12.818,8.544 -12.83,8.553 c -1.9489997,24.607 -12.323,47.756 -29.373001,65.61401 l 3.949001,3.94899 5.673,-5.674 3.49,3.489 -5.674,5.67399 3.929,3.92901 5.675,-5.674 3.489001,3.489 -5.675001,5.67399 2.673,2.67301 36.361999,7.27299 -0.968999,4.83901 -29.102,-5.821 7.3100001,7.31 36.3619989,7.27301 -0.969,4.83899 L 0,223.159 7.31,230.46899 43.672,237.741 42.702999,242.58 9.2399998,235.888 15.932,269.35101 11.094,270.319 3.821,233.95799 l -7.31,-7.31 5.82,29.10302 -4.838,0.96798 -7.274,-36.362 -7.309,-7.30999 5.82,29.10299 -4.838,0.96801 -7.274,-36.362 -2.672,-2.67301 -5.672999,5.67401 -3.49,-3.48899 5.674,-5.67402 -3.929001,-3.929 -5.674999,5.67401 -3.489003,-3.48899 5.675003,-5.67402 L -40.909,189.228 c -17.850998,17.058 -40.998997,27.442 -65.606,29.399 l -8.545,12.819 -8.553,-12.83 c -24.611,-1.95 -47.76301,-12.32601 -65.622,-29.381 l -3.94099,3.94099 5.67399,5.67402 -3.489,3.48899 -5.67399,-5.67401 -3.929,3.929 5.67399,5.67402 -3.489,3.48899 -5.67399,-5.67401 -2.67301,2.67301 -7.27301,36.362 -4.83899,-0.96801 5.821,-29.10299 -7.30999,7.30999 -7.27201,36.362 -4.839,-0.96798 5.82001,-29.10302 -7.31,7.31 -7.27201,36.36101 -4.839,-0.96799 6.692,-33.46301 -33.463,6.692 -0.96801,-4.839 36.361,-7.27201 7.30901,-7.30999 -29.10101,5.821 -0.96799,-4.83899 36.36101,-7.27301 7.30899,-7.31 -29.10201,5.821 -0.96798,-4.83901 36.36199,-7.27299 2.67299,-2.67301 -5.67399,-5.67399 3.489,-3.489 5.67401,5.674 3.92898,-3.92901 -5.67399,-5.67399 3.489,-3.489 5.67401,5.674 3.93998,-3.941 C -209.77699,167.897 -220.158,144.752 -222.116,120.149 l -12.819,-8.545 12.831,-8.554 c 1.94999,-24.615002 12.32901,-47.770001 29.388,-65.628999 l -3.94899,-3.949001 -5.67401,5.674999 -3.489,-3.489998 5.67399,-5.674001 -3.92898,-3.929 -5.67401,5.672999 -3.489,-3.488999 5.673,-5.673 -2.672,-2.672 -36.36199,-7.274 0.96798,-4.838 29.10301,5.82 -7.30999,-7.3090002 L -260.207,-0.982 -259.23901,-5.82 -230.138,0 l -7.30901,-7.31 -36.361,-7.273 0.96801,-4.839 33.463,6.693 -6.692,-33.463001 4.839,-0.968998 7.27201,36.361999 7.31,7.31 -5.82001,-29.102 4.839,-0.969001 7.27201,36.362001 7.30999,7.31 -5.821,-29.102 4.83899,-0.969 7.27301,36.362 2.67301,2.672 5.67399,-5.674 3.489,3.488999 -5.67399,5.675001 3.929,3.928999 5.67399,-5.673999 3.489,3.489 -5.67399,5.674 3.94899,3.948999 c 17.84899,-17.049 40.99101,-27.4289992 65.59,-29.385999 l 8.544,-12.817 8.555,12.831 c 24.609999,1.95 47.761,12.326 65.620001,29.378999 l 3.955997,-3.955999 -5.674,-5.674 3.489003,-3.489 5.673999,5.673999 3.931,-3.93 -5.674999,-5.674 3.49,-3.488999 5.674,5.674 2.670999,-2.672 7.274,-36.362 4.838,0.969 -5.82,29.102 7.309,-7.31 7.274,-36.362001 4.838,0.969001 -5.82,29.102 7.31,-7.31 7.273,-36.361999 4.838,0.968998 L 9.2399998,-12.729 42.702999,-19.422 43.672,-14.583 7.31,-7.31 Z m -10.158,107.542 -6.043,4.029 6.043,4.029 6.0440002,-4.029 z m -2.803,12.119 -12.136,-8.09 12.148,-8.098 C -14.803,80.018997 -24.681999,57.951 -40.917,40.917 L -56.002998,56.002998 C -41.771,71.111 -33.943,90.744003 -33.943,111.592 c 0,20.841 -7.822999,40.47 -22.048001,55.576 L -40.91,182.24899 C -24.674,165.205 -14.803,143.12601 -12.961,119.661 m -68.151999,25.874 -1.424004,-7.12201 -7.120994,-1.42399 1.423996,7.12199 z m 1.931,5.41899 L -92.429,148.306 -95.078003,135.05901 -111.043,119.094 l 5.821,29.102 -4.838,0.96899 -5.008,-25.03499 -5.008,25.03499 -4.839,-0.96899 5.821,-29.102 -15.96501,15.96501 -2.651,13.24699 -13.24398,2.64799 -16.24102,16.24102 c 14.62001,13.70698 33.35001,20.57899 52.09801,20.57899 18.755997,0 37.507004,-6.884 52.126999,-20.60699 z m -62.719991,-6.843 1.42399,-7.12199 -7.12201,1.42399 -1.42399,7.12201 z m -12.541,3.35401 2.64799,-13.245 13.247,-2.64999 15.964,-15.96401 -29.101,5.819 -0.96901,-4.838 25.03801,-5.008 -25.03801,-5.008 0.96901,-4.838 29.101,5.82 -15.964,-15.964003 -13.247,-2.648995 L -154.44299,75.693 -170.674,59.463001 c -13.319,14.177998 -20.64199,32.586003 -20.64199,52.128999 0,19.537 7.319,37.93901 20.62999,52.11599 z m 5.41899,-69.841999 1.42399,7.122002 7.12201,1.423996 -1.42399,-7.122002 z m -1.92999,-5.417999 13.24398,2.650001 2.65001,13.243996 15.966,15.966001 -5.821,-29.103002 4.839,-0.969002 5.008,25.036003 5.008,-25.036003 4.838,0.969002 -5.821,29.103002 15.964997,-15.966001 2.649003,-13.243996 13.246001,-2.651001 16.202,-16.202003 C -77.157997,42.691002 -95.559998,35.373001 -115.097,35.373001 c -19.523,0 -37.914,7.307999 -52.08701,20.600998 z m 62.719989,6.841995 -1.423996,7.122002 7.120994,-1.423996 1.424004,-7.122002 z M -75.694,75.694 -78.344002,88.940002 -91.588997,91.588997 -107.552,107.553 l 29.101004,-5.82 0.968994,4.838 -25.037998,5.008 25.037998,5.008 -0.968994,4.838 -29.101004,-5.819 15.964003,15.96401 13.243995,2.64999 2.650002,13.244 16.214,16.21399 c 13.293,-14.17299 20.602002,-32.56298 20.602002,-52.08599 0,-19.530004 -7.313004,-37.925 -20.614002,-52.1 z m -39.366,146.856 4.029,-6.044 -4.029,-6.043 -4.029,6.043 z m -8.091,-8.847 8.091,-12.136 8.097,12.147 c 23.459002,-1.85301 45.532,-11.734 62.564002,-27.97599 l -15.082001,-15.082 c -31.16,29.36099 -80.028991,29.36999 -111.203011,0.028 L -185.746,185.746 c 17.044,16.241 39.127,26.11499 62.595,27.957 m -96.845,-98.07 6.044,-4.029 -6.044,-4.029 -6.043,4.029 z m 2.80501,-12.119 12.13499,8.09 -12.14799,8.098 c 1.85499,23.455 11.733,45.524 27.96899,62.555 l 15.05901,-15.05999 c -14.24201,-15.11 -22.07502,-34.75 -22.07502,-55.60501 0,-20.860997 7.83802,-40.507001 22.08802,-55.618001 L -189.227,40.91 c -16.245,17.046001 -26.122,39.131 -27.96399,62.604 M -115.093,0.625 l -4.029,6.044 4.029,6.043 4.03,-6.043 z m 8.09,8.8479996 -8.09,12.1350004 -8.098,-12.148 c -23.45001,1.854 -45.516,11.728999 -62.54701,27.961001 L -170.673,52.485 c 15.10701,-14.225002 34.735,-22.047 55.576,-22.047 20.855003,0 40.496002,7.833 55.605,22.075 L -44.407001,37.429 C -61.452,21.188999 -83.533997,11.315 -107.003,9.4729996"
       style="fill:#000000;fill-opacity:0.19704768;fill-rule:nonzero;stroke:none"
       transform="matrix(0.25644238,0,0,-0.25644238,103.50831,81.113584)"
       clip-path="url(#clipPath11301)" />
    <path
       id="path11869-6"
       d="M 0,0 0.625,-2.651 -3.613,-1.785 -6.4109998,-9.232 -8.706,-8.8579998 v 2.862 L -5.44,-1.604 c 0.098,0.133 0.133,0.3 0.1020002,0.458 h 9.999e-4 L -6.382,4.1339998 -2.952,1.182 3.561,4.063 5.4559999,0.676 1.99,1.421 2.981,-1.188 Z m -12.16,-9.232 -2.798,7.447 -4.237999,-0.866 L -18.572,0 l -2.980999,-1.188 0.990999,2.609 -3.465,-0.745 1.862,3.3269998 6.62,-2.9279998 3.314,2.852 -1.003,-5.073 c -0.032,-0.158 0.004,-0.325 0.103,-0.458 l 3.265,-4.3919998 v -2.862 z M -19.201,9.3009996 -17.202,8.156 c -0.252,-0.392 -0.394,-0.861 -0.394,-1.348 0,-1.31 0.994001,-2.375 2.217,-2.375 0.934,0 1.733,0.6219998 2.06,1.499 l 0.983,-0.564 -3.41,-2.935 -5.851,2.588 z M -16.191999,7.578 -14.354,6.524 c -0.111,-0.532 -0.527,-0.931 -1.025,-0.931 -0.582,0 -1.057,0.545 -1.057,1.215 0,0.285 0.089,0.555 0.244001,0.77 M -9.286,-4.8319998 -11.511,-1.838 h 4.4500001 z M -14.111,14.854 -9.776,7.972 c 0.1050005,-0.168 0.2910003,-0.271 0.49,-0.271 0.2,0 0.385,0.103 0.491,0.271 l 4.334,6.88 4.731,3.495 v -0.66 l -4.085,-3.162 0.711,-0.918 3.374,2.612 V 10.433 L -7.887,5.76 -6.612,-0.678 h -5.347 l 1.273,6.438 -8.151999,4.671 0.053,5.745 3.318,-2.569 0.71,0.918 -4.014,3.107999 0.005,0.711001 4.655,-3.49 z m 8.163,-0.186 -3.338,-5.2980001 -3.337,5.2980001 3.34,-0.017 z m 3.443,-7.162 c 0.124,-0.202 0.192,-0.4440002 0.192,-0.698 0,-0.67 -0.473,-1.215 -1.056,-1.215 -0.47,0 -0.8639998,0.3559999 -1.0019998,0.8439998 z M 2.991,5.0809999 -2.751,2.54 -6.116,5.4369998 -5.396,5.849 c 0.344,-0.8330002 1.1230002,-1.416 2.027,-1.416 1.223,0 2.217,1.065 2.217,2.375 0,0.4569999 -0.126,0.897 -0.349,1.273 L 0.63,9.3009996 Z M 3.833,-0.162 7.722,-0.998 1.43,10.248 v 10.398 l -6.516,-4.813 -4.197,-0.022 -4.2,0.022 -6.420999,4.816 L -20,10.25 l -6.294,-11.248 3.889,0.836 -1.171,-3.081 3.364,1.34 -0.528999,-2.248 5.044999,1.0310001 2.784,-7.4100001 3.626,0.591 3.627,-0.591 2.783,7.4100001 L 2.17,-4.151 1.641,-1.902 5.005,-3.243 Z"
       style="fill:#000000;fill-opacity:0.19704768;fill-rule:nonzero;stroke:none"
       transform="matrix(0.64145739,0,0,-0.64145739,79.95657,94.277794)"
       clip-path="url(#clipPath11870-7)" />
    <path
       id="path12425"
       d="m 0,0 -3.282,2.277 c 0.635,0.042 1.255,0.202 1.801,0.489 C -0.834,3.104 -0.335,3.58 0,4.163 0.336,3.58 0.834,3.104 1.481,2.766 2.028,2.479 2.648,2.319 3.283,2.277 Z m -11.32,14.005 c 1.02,-1.247 1.576,-2.795 1.576,-4.429 0,-0.865 -0.1559996,-1.701 -0.46,-2.496 l -3.829,2.658 c 0.964,1.334 1.866,2.754 2.713,4.267 m -0.784,9.174 c -0.2,0.936 0.156,1.893 0.907,2.438 0.898,0.654 2.18,0.625 3.5630002,-0.062 -0.54,-1.708 -1.1180001,-3.329 -1.7350002,-4.869 -1.505,0.457 -2.489,1.344 -2.735,2.493 M -4.6859999,24.865 -0.509,18.698999 c 0.102,-0.149 0.271,-0.239999 0.452,-0.240999 h 0.003 c 0.181,0 0.349,0.088 0.451,0.236 l 4.286,6.171 c 0.6549998,0.07 1.294,0.165 1.9179998,0.304 C 7.137,23.48 7.71,21.877 8.321,20.349 6.346,19.503 4.623,18.427 3.187,17.135 3.185,17.134 3.183,17.132 3.181,17.129999 2.923,16.898 2.672,16.660999 2.433,16.416 1.376,15.331 0.622,14.841 0.014,14.825 c -0.635,0.016 -1.39,0.506 -2.446,1.591 -1.573,1.615 -3.555,2.935 -5.8879997,3.933 C -7.71,21.877 -7.137,23.48 -6.6009998,25.169 -5.977,25.03 -5.34,24.934999 -4.6859999,24.865 M -0.054,24.694 h 0.108 c 1.145,0.001 2.206,0.01 3.215,0.062 l -3.317,-4.777 -3.235,4.777 c 1.012,-0.053 2.077,-0.062 3.229,-0.062 m 11.252,0.923 c 0.75,-0.545 1.107,-1.502 0.906,-2.438 C 11.859,22.03 10.874,21.143 9.3699999,20.686 8.753,22.226 8.175,23.847 7.6339998,25.555 9.0179996,26.242 10.3,26.271 11.198,25.617 M 10.29,7.1399999 C 10.001,7.9159999 9.8529997,8.732 9.8529997,9.576 c 0,1.599 0.5330003,3.115 1.5130003,4.349 0.833,-1.484 1.721,-2.876 2.668,-4.187 z m -6.2150002,1.888 L 5.461,3.817 C 4.399,3.242 3.024,3.1989999 1.991,3.739 1.382,4.059 0.662,4.7059999 0.609,5.9819999 Z M -5.46,3.817 l 1.382,5.2 3.467,-3.122 C -0.692,4.676 -1.396,4.052 -1.99,3.739 -3.023,3.1989999 -4.3979998,3.242 -5.46,3.817 M -7.6669998,16.143999 C -7.6669998,14.829 -6.598,13.76 -5.283,13.76 c 0.644,0 1.105,0.176 1.437,0.405 L -6.427,4.46 -9.276,6.4369998 c 0.4180002,0.993 0.63,2.046 0.63,3.1390002 0,2.04 -0.749,3.965 -2.115,5.461 0.717,1.358 1.39,2.786999 2.024,4.295 0.7940002,-0.341001 1.546,-0.719 2.249,-1.137 -0.704,-0.414 -1.1789998,-1.177 -1.1789998,-2.051001 m 3.6649999,0.246 C -3.973,16.155 -3.978,15.655 -4.236,15.294 c -0.21,-0.293 -0.552,-0.435 -1.047,-0.435 -0.708,0 -1.284,0.576 -1.284,1.284999 0,0.700001 0.5640002,1.269001 1.261,1.281 0.459,-0.325999 0.894,-0.671999 1.3040001,-1.035 M -0.049,6.867 -2.946,9.477 h 5.867 z m 2.547,8.09 1.166,-4.382 h -7.327 l 1.165,4.382 c 0.944,-0.835 1.72,-1.212 2.512,-1.23 0.769,0.018 1.541,0.395 2.484,1.23 m 2.809,2.467999 C 6.004,17.412 6.5679998,16.844 6.5679998,16.143999 6.5679998,15.435 5.992,14.859 5.284,14.859 4.789,14.859 4.446,15.001 4.237,15.294 3.979,15.655 3.974,16.156 4.0029998,16.389 4.413,16.753 4.848,17.099 5.307,17.424999 M 3.8469999,14.164 C 4.179,13.936 4.6399999,13.76 5.284,13.76 c 1.315,0 2.3829998,1.069 2.3829998,2.383999 C 7.6669998,17.018 7.192,17.781 6.4889998,18.195 7.192,18.613 7.9429998,18.990999 8.737,19.332 9.3839998,17.797 10.07,16.34 10.802,14.961 9.479,13.476 8.7539997,11.582 8.7539997,9.576 c 0,-1.071 0.2040003,-2.105 0.606,-3.082 L 6.428,4.46 Z M 6.4109998,3.1099999 15.591,9.4799995 15.252,9.9359999 C 13.16,12.748 11.354,15.965 9.791,19.665 c 1.843,0.587 3.062,1.755 3.388,3.283999 0.291,1.361 -0.233,2.757 -1.335,3.558001 C 10.513,27.474 8.67,27.412 6.774,26.343 4.7849998,25.832 2.646,25.794 0.055,25.792999 h -0.109 c -2.59,0 -4.73,0.039 -6.72,0.550001 -1.8949997,1.069 -3.739,1.131 -5.07,0.164 -1.101,-0.801001 -1.626,-2.197001 -1.335,-3.558001 C -12.852,21.421 -11.634,20.252 -9.79,19.665 c -1.564,-3.7 -3.369,-6.918 -5.461,-9.7290001 L -15.59,9.4799995 -0.226,-1.182 h 0.453 l 6.1829998,4.291 c 0,9.999e-4 0.001,9.999e-4 0.001,9.999e-4"
       style="fill:#000000;fill-opacity:0.19704768;fill-rule:nonzero;stroke:none"
       transform="matrix(0.70489919,0,0,-0.70489919,73.999644,21.125237)"
       clip-path="url(#clipPath12426)" />
    <path
       id="path1262"
       d="M 0,0 C -1.413,0.154 -3.387,0.753 -4.77,2.734 L -6.283,4.9029999 -5.228,-1.225 -5.396,-1.203 c -1.944,0.254 -5.374,1.259 -6.509,5.145 l -0.04,0.1399998 0.143,0.02 c 2.7580003,0.379 4.973,2.568 5.387,5.32 l 0.03,0.199 0.1650002,-0.1150004 C -4.777,8.501 -3.093,7.929 -1.475,7.896 l 0.11,-0.001 0.011,-0.1100002 C -0.937,4.0219998 -0.315,1.563 0.133,0.162 l 0.058,-0.183 z m -12.677,5.214 c -2.846,0 -5.163,2.316 -5.163,5.163 v 0.212 l 0.036,0.036 c 0.75,0.751 1.397,1.645 1.869,2.585 l 0.104,0.207 3.154,-5.445 3.156,5.445 0.103,-0.207 c 0.474,-0.943 1.1190002,-1.839 1.868,-2.589 l 0.036,-0.036 v -0.208 c 0,-2.847 -2.316,-5.163 -5.163,-5.163 m -0.77,-1.272 c -1.136,-3.886 -4.567,-4.891 -6.51,-5.145 l -0.168999,-0.022 0.029,0.167 1.027,5.9609999 L -20.584,2.734 C -21.966999,0.753 -23.94,0.154 -25.354,0 l -0.191,-0.021 0.059,0.183 c 0.450001,1.405 1.073,3.87 1.487,7.6299998 l 0.012,0.1090002 0.11,0.002 c 1.621,0.032 3.306001,0.6009998 4.743,1.6020001 L -18.969,9.62 -18.938,9.4209996 C -18.524,6.669 -16.309,4.481 -13.551,4.102 l 0.144,-0.02 z M -23.858,9.2259998 C -23.728,10.725 -23.642,12.314 -23.603,13.948 l 0.004,0.148 0.145,-0.028 c 0.134,-0.026 0.268,-0.039 0.402,-0.039 1.481001,0 2.686001,1.469 2.686001,3.275 0,0.139 -0.008,0.280999 -0.024,0.42 l -0.015,0.134999 0.136001,0.003 c 0.373999,0.009 0.752999,0.052 1.125999,0.127 l 0.165,0.034 -0.015,-0.168 c -0.017,-0.186 -0.026,-0.362 -0.026,-0.539 v -6.187 l -0.043,-0.037 c -1.356,-1.1889991 -3.057,-1.9179992 -4.665,-2.001999 L -23.87,9.082 Z M -23.577,16.042 c 0,0.787 0.091,1.576999 0.269,2.346 l 0.037,0.152 0.14,-0.068 c 0.429,-0.209 0.906,-0.368 1.417,-0.472 l 0.079,-0.016 0.019,-0.078 c 0.047,-0.205 0.07,-0.401001 0.07,-0.602 0,-1.156 -0.676,-2.096 -1.506,-2.096 -0.153999,0 -0.306999,0.035 -0.455999,0.105 l -0.072,0.035 0.003,0.694 z m 0.707,3.750999 c 0.684,1.739001 1.849,3.267 3.368,4.415001 l 0.066,0.05 0.072,-0.041 c 0.898,-0.521 1.673,-1.302999 2.238001,-2.261999 l 0.05,-0.084 -0.07,-0.068 c -0.679,-0.677 -1.205,-1.506999 -1.519,-2.400999 l -0.02,-0.054 -0.055,-0.021 c -0.444,-0.163 -1.038999,-0.281 -1.694999,-0.281 -0.711001,0 -1.496001,0.14 -2.234001,0.513 -0.049,0.024 -0.097,0.05 -0.147,0.08 l -0.093,0.053 0.039,0.101 z m 4.704,5.275001 c 1.645,0.9 3.544,1.375 5.489,1.375 1.946,0 3.844,-0.475 5.4900002,-1.375 L -7.013,24.974 -7.1739998,24.857 c -0.7740002,-0.557001 -1.4359999,-1.274 -1.967,-2.131 l -0.066,-0.108 -0.1059999,0.068 C -11.325,23.952999 -14.026,23.952 -16.04,22.686 l -0.106,-0.068 -0.067,0.108 c -0.531,0.858 -1.193001,1.576 -1.967001,2.131 l -0.161,0.117 0.175,0.094 z m 10.652,-7.752 v -4.932 l -0.227,0.327 c -0.4919998,0.707 -0.8669998,1.461 -1.115,2.24 l -0.406,1.271 -3.415,-5.897 -3.414999,5.897 -0.405001,-1.271 c -0.248,-0.779 -0.623,-1.533 -1.115,-2.241 l -0.228,-0.327 v 4.933 c 0,2.847 2.317,5.163 5.163,5.163 2.847,0 5.163,-2.316 5.163,-5.163 m 1.596,6.941999 0.066,-0.05 c 1.519,-1.148001 2.684,-2.676 3.369,-4.415001 l 0.039,-0.1 -0.093,-0.054 c -0.049,-0.029 -0.098,-0.056 -0.149,-0.081 -0.739,-0.372 -1.523,-0.512 -2.236,-0.512 -0.654,0 -1.249,0.118 -1.691,0.281 l -0.056,0.021 -0.019,0.055 C -7,20.296 -7.525,21.125999 -8.2069998,21.802999 l -0.069,0.068 0.049,0.084 c 0.564,0.959 1.338,1.74 2.2380002,2.261999 l 0.071,0.041 z M -2.082,18.541 -2.046,18.388 c 0.18,-0.769001 0.271,-1.558 0.271,-2.347 l 0.002,-0.693 -0.072,-0.035 c -0.148,-0.07 -0.301,-0.105 -0.456,-0.105 -0.831,0 -1.507,0.94 -1.507,2.096 0,0.200999 0.024,0.398 0.072,0.602 l 0.018,0.078 0.079,0.016 c 0.511,0.104 0.988,0.261999 1.416,0.472 z m 0.332,-4.593 c 0.039,-1.635 0.124,-3.222 0.255,-4.7200003 l 0.012,-0.1440001 -0.144,0.008 c -1.609,0.085 -3.3099998,0.814 -4.6639999,2.0020004 l -0.043,0.037 v 6.185 c 0,0.177 -0.009,0.353 -0.025,0.539 l -0.016,0.168 0.165,-0.034 c 0.3730001,-0.075 0.751,-0.118 1.125,-0.127 l 0.1360001,-0.003 -0.015,-0.135 c -0.015,-0.14 -0.022,-0.282001 -0.022,-0.42 0,-1.806 1.2050001,-3.275 2.685,-3.275 0.134,0 0.269,0.013 0.403,0.039 l 0.144,0.028 z m 2.843,-15.157 0.815,0.072 -0.326,0.751 c -0.089,0.21 -2.179,5.279 -2.179,16.427 0,6.494 -5.3059999,11.581999 -12.08,11.581999 -6.773,0 -12.08,-5.087999 -12.08,-11.581999 0,-11.166 -2.09,-16.217 -2.179,-16.427 l -0.325999,-0.75 0.818999,-0.074 c 0.469,-0.035 2.932,-0.143 5.17,1.541 l 0.252,0.19 -0.513,-2.975 0.701,0.002 c 0.058,0 5.795,0.06 8.043,4.815 l 0.113,0.239 0.114,-0.239 c 2.249,-4.755 7.985,-4.815 8.042,-4.815 L -3.819,-2.454 -4.3319998,0.522 -4.08,0.332 c 2.394,-1.806 5.06,-1.551 5.173,-1.541"
       style="fill:#000000;fill-opacity:0.19704768;fill-rule:nonzero;stroke:none"
       transform="matrix(0.68563595,0,0,-0.68563595,133.39947,61.128385)"
       clip-path="url(#clipPath1263)" />
    <path
       id="path706"
       d="m 0,0 c -2.73,-0.881 -4.605,-3.561 -4.605,-6.672 0,-3.111 1.875,-5.791 4.605,-6.672 v -2.119 l -5.0419998,4.529 C -6.244,-9.8529997 -6.935,-8.3059998 -6.935,-6.689 v 5.626 c 0.39,0.789 0.892,1.547 1.4660001,2.267 C -5.064,0.263 -4.129,-0.397 -3.042,-0.397 c 1.456,0 2.641,1.184 2.641,2.64 0,1.064 -0.635,1.982 -1.544,2.399 0.66,0.526 1.319,1.004 1.945,1.4319999 z m 0,-9.863 c -1.11,0.5710002 -1.84,1.7950002 -1.84,3.191 0,1.397 0.73,2.621 1.84,3.191 z m 0,7.53 c -1.725,-0.623 -2.897,-2.348 -2.897,-4.339 0,-1.9919996 1.172,-3.716 2.897,-4.339 v -1.216 c -2.119,0.843 -3.548,3.0320003 -3.548,5.555 0,2.523 1.429,4.712 3.548,5.554 z m -7.4629998,-17.838 -5.4680002,5.08 1.178,1.058 4.2900002,-3.985 4.2889998,3.985 1.179,-1.058 z M -14.927,-13.344 c 2.732,0.881 4.607,3.561 4.607,6.672 0,3.111 -1.875,5.791 -4.607,6.672 V 6.0749998 C -14.3,5.6469998 -13.641,5.168 -12.979,4.643 c -0.911,-0.418 -1.545,-1.335 -1.545,-2.4 0,-1.456 1.184,-2.64 2.64,-2.64 1.087,0 2.023,0.66 2.4270002,1.601 C -8.883,0.484 -8.382,-0.273 -7.991,-1.063 v -5.626 c 0,-1.6169998 -0.691,-3.1639997 -1.894,-4.245 l -5.042,-4.529 z m 0.011,3.481 v 6.382 c 1.11,-0.57 1.841,-1.794 1.841,-3.191 0,-1.397 -0.731,-2.6199998 -1.841,-3.191 m -0.011,-1.153 c 1.732,0.62 2.908,2.3490002 2.908,4.344 0,1.996 -1.176,3.7230001 -2.908,4.343 v 1.211 c 2.12,-0.842 3.549,-3.0299998 3.549,-5.554 0,-2.5229997 -1.429,-4.712 -3.549,-5.555 z m 4.625,13.202 c -0.03,-0.847 -0.728,-1.526 -1.582,-1.526 -0.873,0 -1.583,0.71 -1.583,1.583 0,0.83 0.643,1.513 1.473,1.577 0.586,-0.512 1.158,-1.058 1.692,-1.634 M -7.4629998,-12.979 -9,-11.551 c 0.665,0.642 1.185,1.409 1.5370002,2.249 C -7.111,-10.142 -6.592,-10.909 -5.927,-11.551 Z m -2.322,0.714 2.322,-2.157 2.3209998,2.157 1.179,-1.059 -3.4999998,-3.251 -3.5000002,3.251 z M -2.929,3.822 c 0.821,-0.058 1.47,-0.744 1.47,-1.579 0,-0.873 -0.71,-1.583 -1.583,-1.583 -0.854,0 -1.5519999,0.678 -1.582,1.525 0.535,0.577 1.108,1.124 1.695,1.637 M -15.017,8.3339996 C -13.025,7.31 -10.209,5.492 -7.876,2.5739999 L -7.4629998,2.058 -7.051,2.5739999 C -4.717,5.492 -1.9,7.31 0.091,8.3339996 H 1.57 C -0.906,6.882 -5.2389998,3.958 -7.4629998,0.184 -7.9699998,1.043 -8.588,1.855 -9.267,2.619 v 0.002 l -0.042,0.047 c -2.295,2.567 -5.287,4.5509999 -7.187,5.6659996 z m 12.962,0 C -3.754,7.2849998 -5.7119999,5.79 -7.4629998,3.734 -9.215,5.79 -11.173,7.2849998 -12.871,8.3339996 Z m 5.931,0.053 -0.231,1.0039998 H -18.57 L -18.802,8.387 c 0.031,-0.015 1.216,-0.598 2.819,-1.616 v -6.487 -13.912 -4.205 l 2.262,2.032 6.2580002,-5.813 6.2579998,5.813 2.263,-2.032 v 4.205 2.329 9.254 2.329 6.487 C 2.66,7.788 3.845,8.3719997 3.876,8.387"
       style="fill:#000000;fill-opacity:0.19704768;fill-rule:nonzero;stroke:none"
       transform="matrix(0.88191199,0,0,-0.88191199,29.874041,47.110194)"
       clip-path="url(#clipPath707)" />
  </g>
</svg>
